<?xml version="1.0" encoding="UTF-8"?>
<svg id="Layer_2" data-name="Layer 2" xmlns="http://www.w3.org/2000/svg" viewBox="0 0 299 299">
  <defs>
    <style>
      .cls-1 {
        fill: gray;
      }
    </style>
  </defs>
  <g id="Layer_1-2" data-name="Layer 1">
    <g>
      <path d="M166.74,207.13h132.25v-57.63h0C299,66.93,232.06,0,149.5,0S0,66.93,0,149.5s66.93,149.5,149.5,149.5h149.5v-57.63H149.5c-50.74,0-91.87-41.13-91.87-91.87S98.76,57.63,149.5,57.63s91.87,41.13,91.87,91.87h-74.62v57.63Z"/>
      <path class="cls-1" d="M270.76,236.94c-18.93-6.11-35.18-18.19-46.51-34.03-10.77-15.05-17.12-33.49-17.12-53.41h-57.63c0,32.65,10.47,62.85,28.24,87.44,12.34,17.08,28.2,31.46,46.51,42.05,21.99,12.72,47.52,20.01,74.75,20.01v-57.63c-9.85,0-19.34-1.56-28.24-4.43Z"/>
    </g>
  </g>
</svg>