<?xml version="1.0" encoding="UTF-8"?>
<svg id="Layer_2" data-name="Layer 2" xmlns="http://www.w3.org/2000/svg" viewBox="0 0 838.13 560.09">
  <defs>
    <style>
      .cls-1 {
        font-family: Lato-Black, Lato;
        font-size: 168.27px;
      }

      .cls-1, .cls-2 {
        fill: #b30000;
      }

      .cls-3 {
        letter-spacing: -.02em;
      }

      .cls-4, .cls-5 {
        fill: #dd9700;
      }

      .cls-6 {
        letter-spacing: .04em;
      }

      .cls-5 {
        font-family: Lato-Regular, Lato;
        font-size: 56.04px;
        letter-spacing: .16em;
      }
    </style>
  </defs>
  <g id="Layer_1-2" data-name="Layer 1">
    <g>
      <g>
        <path class="cls-2" d="M436.31,207.13h132.25v-57.63h0C568.56,66.93,501.63,0,419.07,0s-149.5,66.93-149.5,149.5,66.93,149.5,149.5,149.5h149.5v-57.63h-149.5c-50.74,0-91.87-41.13-91.87-91.87s41.13-91.87,91.87-91.87,91.87,41.13,91.87,91.87h-74.62v57.63Z"/>
        <path class="cls-4" d="M568.56,241.36c-9.85,0-19.34-1.56-28.24-4.43-1.54,2.14-3.14,4.23-4.79,6.28-2.48,3.07-5.07,6.05-7.78,8.91,2.71-2.87,5.3-5.84,7.78-8.91,1.65-2.05,3.25-4.14,4.79-6.28-18.93-6.11-35.18-18.19-46.51-34.03h0c-10.77-15.05-17.12-33.49-17.12-53.41h-57.63c0,32.65,10.47,62.85,28.24,87.44,12.34,17.08,28.2,31.46,46.51,42.05h0c21.99,12.72,47.52,20.01,74.75,20.01v-57.63Z"/>
      </g>
      <text class="cls-5" transform="translate(265.35 549.87)"><tspan x="0" y="0">VIETNAM</tspan></text>
      <text class="cls-1" transform="translate(0 447.41)"><tspan x="0" y="0">OE </tspan><tspan class="cls-6" x="262.16" y="0">A</tspan><tspan class="cls-3" x="392.91" y="0">ge</tspan><tspan x="565.72" y="0">ncy</tspan></text>
      <path class="cls-4" d="M120.58,424.33c-7.04-2.27-13.08-6.76-17.3-12.66-4.01-5.6-6.37-12.46-6.37-19.86h-21.43c0,12.14,3.9,23.37,10.5,32.52,4.59,6.35,10.49,11.7,17.3,15.64,8.18,4.73,17.67,7.44,27.8,7.44v-21.43c-3.66,0-7.19-.58-10.5-1.65Z"/>
    </g>
  </g>
</svg>